<svg width="148" height="38" viewBox="0 0 148 38" fill="none" xmlns="http://www.w3.org/2000/svg">
<path d="M93.3171 36.6347H87V1.06934H112.332V6.6284H93.3171V15.346H107.847V20.5892H93.3171V36.6347Z" fill="#5F8ABE"/>
<path d="M146.375 2.86328L145.477 2.15918L135.365 17.873L148 36.6348H140.482L131.007 21.916L121.595 36.6348H114.141L126.774 17.873L115.15 1.06934H122.795L131.007 14.0195L140 6.06934L145.032 1.81055L144 1.00195L146.702 0L146.375 2.86328Z" fill="#5F8ABE"/>
<path d="M90.8185 16.1187V36.5446H87.043V16.1187H90.8185ZM80.8984 18.7422V15.4441H97V18.7422H80.8984Z" fill="#282828"/>
<path d="M70.2125 36.9569C69.0527 36.9569 67.9299 36.8195 66.8441 36.5447C65.7583 36.2948 64.7712 35.8701 63.8829 35.2704C63.0192 34.6707 62.3159 33.9087 61.773 32.9842C61.2548 32.0597 60.9834 30.9354 60.9587 29.6111H64.7712C64.7712 29.711 64.7959 29.9109 64.8453 30.2108C64.8946 30.4856 65.018 30.8104 65.2154 31.1852C65.4375 31.56 65.746 31.9223 66.1408 32.2721C66.5603 32.6219 67.1155 32.9217 67.8065 33.1716C68.5221 33.3965 69.4105 33.5089 70.4716 33.5089C71.2119 33.5089 71.8411 33.4339 72.3593 33.284C72.9022 33.1341 73.3464 32.9342 73.6919 32.6844C74.062 32.4345 74.3335 32.1597 74.5062 31.8598C74.679 31.535 74.7653 31.2227 74.7653 30.9229C74.7653 30.2233 74.5186 29.6736 74.025 29.2738C73.5562 28.849 72.9146 28.5117 72.1002 28.2619C71.3106 27.987 70.4346 27.7497 69.4722 27.5498C68.5344 27.3249 67.5844 27.0625 66.622 26.7627C65.6843 26.4629 64.8206 26.0756 64.0309 25.6009C63.2413 25.1012 62.6244 24.464 62.1802 23.6895C61.7607 22.9149 61.5756 21.928 61.6249 20.7286C61.7237 19.5543 62.1308 18.5424 62.8464 17.6929C63.5621 16.8433 64.5615 16.1937 65.8447 15.744C67.1279 15.2942 68.6208 15.0693 70.3235 15.0693C71.8041 15.0693 73.1737 15.3442 74.4322 15.8939C75.7154 16.4186 76.7395 17.2181 77.5045 18.2925C78.2941 19.3419 78.6889 20.6912 78.6889 22.3402H75.0244C75.0244 21.5657 74.8517 20.941 74.5062 20.4663C74.1608 19.9666 73.7166 19.5918 73.1737 19.3419C72.6555 19.0671 72.1002 18.8922 71.508 18.8172C70.9158 18.7173 70.3852 18.6673 69.9163 18.6673C68.6825 18.6673 67.6584 18.8797 66.8441 19.3044C66.0544 19.7042 65.6596 20.3289 65.6596 21.1784C65.6349 21.903 65.8694 22.4776 66.3629 22.9024C66.8564 23.3022 67.5104 23.627 68.3247 23.8768C69.139 24.1267 70.0274 24.3641 70.9898 24.5889C71.9522 24.7888 72.9146 25.0262 73.877 25.301C74.8394 25.5759 75.7031 25.9507 76.468 26.4254C77.2577 26.9001 77.8746 27.5248 78.3188 28.2993C78.7876 29.0739 78.9851 30.0858 78.911 31.3351C78.8617 32.5095 78.4545 33.5214 77.6895 34.3709C76.9246 35.1954 75.9005 35.8326 74.6173 36.2823C73.3588 36.7321 71.8905 36.9569 70.2125 36.9569Z" fill="#282828"/>
<path d="M49.0131 37.0693C46.0765 37.0693 43.8309 36.2448 42.2763 34.5957C40.7217 32.9217 39.9443 30.573 39.9443 27.5497V15.4441H43.979V27.5123C43.979 28.6866 44.1147 29.661 44.3862 30.4356C44.6823 31.1852 45.0648 31.7848 45.5336 32.2346C46.0272 32.6593 46.5701 32.9717 47.1623 33.1715C47.7792 33.3464 48.3961 33.4339 49.0131 33.4339C49.9508 33.4339 50.8021 33.2715 51.5671 32.9467C52.3321 32.5969 52.9367 31.9972 53.3808 31.1477C53.8497 30.2732 54.0841 29.0614 54.0841 27.5123V15.4441H58.0818V27.5497C58.0818 30.623 57.3168 32.9842 55.7868 34.6332C54.2815 36.2573 52.0236 37.0693 49.0131 37.0693Z" fill="#282828"/>
<path d="M19.5234 36.5446V15.4441H27.1856C28.987 15.4441 30.5169 15.644 31.7755 16.0437C33.0587 16.4435 34.0334 17.0932 34.6997 17.9926C35.3906 18.8672 35.7361 20.079 35.7361 21.6281C35.7361 22.7774 35.551 23.7894 35.1809 24.6639C34.8354 25.5134 34.3048 26.188 33.5892 26.6877C32.8983 27.1624 32.0346 27.3998 30.9981 27.3998C31.7384 27.3998 32.3183 27.5497 32.7379 27.8496C33.1574 28.1244 33.4658 28.4992 33.6632 28.9739C33.8853 29.4237 34.0334 29.9109 34.1074 30.4356C34.1814 30.9603 34.2431 31.4725 34.2925 31.9722C34.3665 32.4719 34.4776 32.9092 34.6256 33.284C34.7737 33.6338 35.0081 33.8711 35.3289 33.9961C35.6497 34.096 36.1186 34.0336 36.7355 33.8087V36.0199C36.2666 36.4197 35.7114 36.6821 35.0698 36.807C34.4282 36.9569 33.799 36.9194 33.182 36.6945C32.5651 36.4697 32.0469 36.0324 31.6274 35.3828C31.2079 34.7082 30.9981 33.7712 30.9981 32.5719C30.9981 31.6974 30.9611 30.9603 30.8871 30.3606C30.8131 29.761 30.6403 29.2862 30.3689 28.9364C30.1221 28.5617 29.7149 28.2868 29.1474 28.1119C28.6045 27.912 27.8642 27.7996 26.9265 27.7746C25.9888 27.7246 24.7796 27.7371 23.299 27.8121V36.5446H19.5234ZM23.299 25.0387H27.0375C28.2714 25.0387 29.2708 24.9887 30.0357 24.8887C30.8254 24.7638 31.4053 24.4765 31.7755 24.0267C32.1703 23.577 32.3677 22.8774 32.3677 21.9279C32.3677 20.8535 32.1333 20.079 31.6644 19.6042C31.1956 19.1295 30.5046 18.8422 29.5916 18.7422C28.7032 18.6173 27.6051 18.5548 26.2972 18.5548H23.299V25.0387Z" fill="#282828"/>
<path d="M9.92007 16.1187V36.5446H6.14452V16.1187H9.92007ZM0 18.7422V15.4441H16.1016V18.7422H0Z" fill="#282828"/>
</svg>
