<svg width="600" height="600" viewBox="0 0 600 600" fill="none" xmlns="http://www.w3.org/2000/svg">
<path d="M326.302 468.457V130.994H454.148C464.952 130.994 476.356 131.594 488.36 132.793C500.364 133.592 511.969 135.59 523.173 138.787C534.777 141.983 545.18 146.978 554.384 153.772C563.587 160.165 570.79 168.757 575.991 179.546C581.593 190.335 584.394 203.921 584.394 220.305C584.394 233.092 581.793 245.08 576.592 256.269C571.79 267.058 562.787 275.849 549.582 282.643C536.777 289.436 517.971 293.232 493.162 294.031V296.429C521.572 296.829 543.38 300.824 558.585 308.417C574.191 316.009 584.995 325.999 590.997 338.387C596.999 350.375 600 363.762 600 378.547C600 395.33 596.999 409.316 590.997 420.505C584.995 431.294 576.992 439.885 566.988 446.279C556.985 452.673 545.781 457.468 533.376 460.665C520.972 463.861 508.167 466.059 494.963 467.258C482.158 468.057 470.154 468.457 458.95 468.457H326.302ZM375.52 427.698H454.748C471.954 427.698 487.56 426.699 501.565 424.701C515.57 422.303 526.774 417.108 535.177 409.116C543.98 401.124 548.381 388.936 548.381 372.553C548.381 354.97 543.78 342.183 534.577 334.191C525.773 325.8 513.969 320.405 499.164 318.007C484.359 315.21 467.953 313.811 449.946 313.811H375.52V427.698ZM375.52 274.85H448.146C464.552 274.85 479.157 273.851 491.961 271.853C505.166 269.855 515.57 265.46 523.173 258.667C530.775 251.474 534.577 240.285 534.577 225.1C534.577 208.317 530.575 196.329 522.572 189.136C514.569 181.544 503.966 176.948 490.761 175.35C477.956 173.352 463.951 172.353 448.746 172.353H375.52V274.85Z" fill="#5F8ABE"/>
<path d="M147.052 475.649C128.646 475.649 110.84 473.451 93.6334 469.056C76.4273 464.66 60.8217 457.867 46.8167 448.676C32.8117 439.485 21.6077 427.697 13.2047 413.312C4.80171 398.526 0.400143 380.944 0 360.564H50.418C50.418 361.763 50.8181 364.96 51.6184 370.155C52.4187 375.35 54.4194 381.344 57.6205 388.137C61.2218 394.93 66.4237 401.523 73.2261 407.917C80.4287 414.311 90.2322 419.705 102.637 424.101C115.441 428.097 131.447 430.095 150.654 430.095C165.459 430.095 177.863 428.496 187.867 425.3C197.871 422.103 205.873 417.907 211.876 412.712C217.878 407.517 222.079 402.123 224.48 396.528C227.281 390.934 228.682 385.939 228.682 381.543C228.682 369.156 224.68 359.166 216.677 351.573C209.075 343.981 198.671 337.987 185.466 333.591C172.261 328.796 157.656 324.6 141.65 321.004C126.045 317.008 110.439 312.812 94.8338 308.417C79.2282 303.621 64.8231 297.427 51.6184 289.835C38.8138 282.243 28.8103 272.452 21.6077 260.464C14.4051 248.077 11.204 232.293 12.0043 213.112C13.2047 194.73 19.607 178.946 31.2111 165.759C42.8153 152.572 58.6209 142.582 78.628 135.789C99.0353 128.596 122.244 125 148.253 125C171.861 125 193.469 129.196 213.076 137.587C233.083 145.979 249.089 158.566 261.093 175.35C273.498 191.733 279.5 212.712 279.1 238.287H230.482C230.882 224.301 228.081 213.112 222.079 204.72C216.077 195.929 208.274 189.136 198.671 184.341C189.468 179.545 179.864 176.349 169.861 174.75C159.857 172.752 150.854 171.753 142.851 171.753C120.443 171.753 101.836 175.949 87.031 184.341C72.6259 192.333 65.2233 203.721 64.8231 218.506C64.423 231.294 68.2243 241.483 76.2272 249.076C84.23 256.668 94.8338 262.662 108.039 267.058C121.243 271.453 135.848 275.45 151.854 279.046C167.86 282.642 183.665 286.638 199.271 291.034C214.877 295.429 229.082 301.423 241.886 309.016C255.091 316.209 265.295 325.999 272.497 338.387C280.1 350.774 283.501 366.758 282.701 386.339C281.901 405.12 275.498 421.104 263.494 434.291C251.49 447.477 235.484 457.667 215.477 464.86C195.47 472.053 172.662 475.649 147.052 475.649Z" fill="#5F8ABE"/>
</svg>
