<svg width="600" height="600" fill="none" xmlns="http://www.w3.org/2000/svg"><path d="M326.302 468.457V130.994h127.846c10.804 0 22.208.6 34.212 1.799 12.004.799 23.609 2.797 34.813 5.994 11.604 3.196 22.007 8.191 31.211 14.985 9.203 6.393 16.406 14.985 21.607 25.774 5.602 10.789 8.403 24.375 8.403 40.759 0 12.787-2.601 24.775-7.802 35.964-4.802 10.789-13.805 19.58-27.01 26.374-12.805 6.793-31.611 10.589-56.42 11.388v2.398c28.41.4 50.218 4.395 65.423 11.988 15.606 7.592 26.41 17.582 32.412 29.97 6.002 11.988 9.003 25.375 9.003 40.16 0 16.783-3.001 30.769-9.003 41.958-6.002 10.789-14.005 19.38-24.009 25.774-10.003 6.394-21.207 11.189-33.612 14.386-12.404 3.196-25.209 5.394-38.413 6.593-12.805.799-24.809 1.199-36.013 1.199H326.302Zm49.218-40.759h79.228c17.206 0 32.812-.999 46.817-2.997 14.005-2.398 25.209-7.593 33.612-15.585 8.803-7.992 13.204-20.18 13.204-36.563 0-17.583-4.601-30.37-13.804-38.362-8.804-8.391-20.608-13.786-35.413-16.184-14.805-2.797-31.211-4.196-49.218-4.196H375.52v113.887Zm0-152.848h72.626c16.406 0 31.011-.999 43.815-2.997 13.205-1.998 23.609-6.393 31.212-13.186 7.602-7.193 11.404-18.382 11.404-33.567 0-16.783-4.002-28.771-12.005-35.964-8.003-7.592-18.606-12.188-31.811-13.786-12.805-1.998-26.81-2.997-42.015-2.997H375.52V274.85ZM147.052 475.649c-18.406 0-36.212-2.198-53.419-6.593-17.206-4.396-32.811-11.189-46.816-20.38-14.005-9.191-25.21-20.979-33.612-35.364C4.802 398.526.4 380.944 0 360.564h50.418c0 1.199.4 4.396 1.2 9.591.8 5.195 2.801 11.189 6.002 17.982 3.602 6.793 8.804 13.386 15.606 19.78 7.203 6.394 17.006 11.788 29.411 16.184 12.804 3.996 28.81 5.994 48.017 5.994 14.805 0 27.209-1.599 37.213-4.795 10.004-3.197 18.006-7.393 24.009-12.588 6.002-5.195 10.203-10.589 12.604-16.184 2.801-5.594 4.202-10.589 4.202-14.985 0-12.387-4.002-22.377-12.005-29.97-7.602-7.592-18.006-13.586-31.211-17.982-13.205-4.795-27.81-8.991-43.816-12.587a2033.465 2033.465 0 0 1-46.816-12.587c-15.606-4.796-30.01-10.99-43.216-18.582-12.804-7.592-22.808-17.383-30.01-29.371-7.203-12.387-10.404-28.171-9.604-47.352 1.2-18.382 7.603-34.166 19.207-47.353 11.604-13.187 27.41-23.177 47.417-29.97C99.035 128.596 122.244 125 148.253 125c23.608 0 45.216 4.196 64.823 12.587 20.007 8.392 36.013 20.979 48.017 37.763 12.405 16.383 18.407 37.362 18.007 62.937h-48.618c.4-13.986-2.401-25.175-8.403-33.567-6.002-8.791-13.805-15.584-23.408-20.379-9.203-4.796-18.807-7.992-28.81-9.591-10.004-1.998-19.007-2.997-27.01-2.997-22.408 0-41.015 4.196-55.82 12.588-14.405 7.992-21.808 19.38-22.208 34.165-.4 12.788 3.401 22.977 11.404 30.57 8.003 7.592 18.607 13.586 31.812 17.982 13.204 4.395 27.809 8.392 43.815 11.988a912.845 912.845 0 0 1 47.417 11.988c15.606 4.395 29.811 10.389 42.615 17.982 13.205 7.193 23.409 16.983 30.611 29.371 7.603 12.387 11.004 28.371 10.204 47.952-.8 18.781-7.203 34.765-19.207 47.952-12.004 13.186-28.01 23.376-48.017 30.569-20.007 7.193-42.815 10.789-68.425 10.789Z" fill="#5F8ABE"/></svg>